<?xml version="1.0" standalone="no"?>
<!DOCTYPE svg PUBLIC "-//W3C//DTD SVG 20010904//EN"
 "http://www.w3.org/TR/2001/REC-SVG-20010904/DTD/svg10.dtd">
<svg version="1.0" xmlns="http://www.w3.org/2000/svg"
 width="1135.000000pt" height="484.000000pt" viewBox="0 0 1135.000000 484.000000"
 preserveAspectRatio="xMidYMid meet">

<g transform="translate(0.000000,484.000000) scale(0.100000,-0.100000)"
fill="#000000" stroke="none">
<path d="M8330 4570 l0 -160 1195 0 1195 0 0 -1210 0 -1210 160 0 160 0 0
1370 0 1370 -1355 0 -1355 0 0 -160z"/>
<path d="M1545 3327 c-3 -6 -4 -183 -3 -392 l3 -380 164 -3 c125 -2 166 1 173
10 9 15 11 721 2 756 -6 22 -9 22 -170 22 -123 0 -166 -3 -169 -13z"/>
<path d="M2567 3333 c-4 -3 -7 -258 -7 -565 l0 -558 -510 0 -510 0 2 -332 3
-333 160 -3 c142 -2 161 -1 172 15 9 12 13 62 13 165 l0 148 335 0 335 0 2
-162 3 -163 164 -3 c125 -2 166 1 173 10 9 15 11 1748 2 1772 -5 14 -30 16
-168 16 -90 0 -166 -3 -169 -7z"/>
<path d="M3903 3328 c-5 -7 -68 -166 -140 -353 -73 -187 -155 -401 -184 -475
-28 -74 -121 -315 -206 -534 -84 -220 -151 -406 -149 -413 4 -10 44 -13 176
-13 l170 0 11 28 c6 15 35 97 64 182 55 160 164 473 232 663 21 60 42 110 47
110 4 1 32 -65 61 -148 93 -265 283 -799 290 -817 6 -16 25 -18 176 -18 134 0
171 3 175 14 3 7 -80 233 -184 502 -382 985 -431 1111 -464 1194 -33 83 -54
105 -75 78z"/>
<path d="M4950 2655 l0 -685 170 0 170 0 0 372 c0 321 2 370 14 358 8 -8 177
-249 377 -535 199 -286 379 -544 401 -573 l39 -52 162 2 162 3 3 898 2 897
-164 0 c-140 0 -165 -2 -170 -16 -3 -9 -6 -270 -6 -580 0 -310 -3 -564 -7
-564 -5 0 -190 261 -413 580 l-405 580 -167 0 -168 0 0 -685z"/>
<path d="M6780 2655 l0 -685 170 0 170 0 0 372 c0 366 0 372 19 353 10 -11
138 -191 283 -400 145 -209 281 -405 303 -435 21 -30 63 -90 93 -135 31 -44
73 -104 94 -133 l39 -52 162 2 162 3 3 898 2 897 -164 0 -163 0 -7 -52 c-3
-29 -6 -290 -6 -580 0 -291 -3 -528 -7 -528 -5 1 -185 254 -401 563 -216 309
-399 570 -406 580 -12 15 -33 17 -180 17 l-166 0 0 -685z"/>
<path d="M9262 3263 c-41 -103 -70 -179 -272 -703 -95 -245 -219 -566 -276
-713 -57 -148 -104 -277 -104 -288 0 -18 9 -19 169 -19 123 0 171 3 179 13 5
6 29 66 51 132 23 66 57 163 76 215 18 52 75 215 126 363 51 147 96 267 99
267 4 0 53 -129 109 -287 56 -159 135 -380 175 -493 l73 -205 168 -3 c93 -1
173 2 178 7 9 9 -10 59 -213 581 -50 129 -106 273 -124 320 -66 172 -248 641
-295 761 -62 158 -75 164 -119 52z"/>
<path d="M370 1575 l0 -1365 1350 0 1350 0 0 160 0 160 -1190 0 -1190 0 0
1205 0 1205 -160 0 -160 0 0 -1365z"/>
<path d="M7265 619 c-4 -5 0 -18 9 -28 12 -14 16 -40 16 -121 0 -81 -4 -107
-16 -121 -26 -29 -8 -39 69 -39 122 0 177 44 185 148 5 73 -15 124 -60 152
-26 16 -50 20 -115 20 -47 0 -85 -5 -88 -11z m140 -25 c60 -24 60 -224 0 -248
-43 -16 -45 -12 -45 124 0 136 2 140 45 124z"/>
<path d="M7610 619 c0 -6 7 -17 15 -25 11 -12 15 -41 15 -124 0 -83 -4 -112
-15 -124 -31 -31 -17 -36 104 -36 l119 0 6 31 c10 50 7 59 -17 59 -14 0 -26
-9 -32 -22 -8 -18 -20 -24 -52 -26 l-43 -3 0 55 c0 54 1 56 26 56 18 0 28 -6
31 -21 4 -12 11 -18 20 -15 8 3 17 6 19 6 2 0 4 20 4 44 0 31 -5 46 -16 50
-21 8 -21 8 -27 -14 -3 -14 -14 -20 -31 -20 -25 0 -26 3 -26 50 l0 50 33 0
c21 0 41 -8 52 -20 13 -15 22 -17 36 -10 15 9 16 15 7 40 l-10 30 -109 0 c-71
0 -109 -4 -109 -11z"/>
<path d="M7976 609 c-21 -16 -26 -29 -26 -64 0 -37 5 -47 35 -74 19 -17 49
-38 65 -46 38 -20 56 -51 39 -71 -25 -31 -79 -11 -99 36 -15 37 -50 42 -50 6
0 -13 3 -37 6 -53 6 -30 6 -30 83 -32 89 -2 124 16 136 68 9 44 -15 81 -82
122 -49 30 -58 40 -58 65 0 24 5 30 27 32 26 3 30 0 67 -48 26 -33 41 -17 34
36 l-5 42 -73 1 c-59 1 -77 -3 -99 -20z"/>
<path d="M8254 619 c-3 -6 -1 -16 5 -22 14 -14 15 -243 1 -252 -5 -3 -10 -13
-10 -21 0 -11 14 -14 60 -14 46 0 60 3 60 14 0 8 -4 18 -10 21 -6 4 -10 57
-10 125 0 68 4 121 10 125 6 3 10 13 10 21 0 17 -105 20 -116 3z"/>
<path d="M8519 613 c-37 -22 -59 -64 -66 -121 -7 -61 9 -110 47 -147 26 -25
41 -30 95 -33 91 -6 115 10 108 72 -5 39 -3 46 11 46 11 0 16 6 14 18 -3 14
-16 18 -66 20 -66 3 -82 -11 -41 -36 15 -10 19 -21 17 -45 -3 -34 -21 -43 -63
-33 -42 11 -60 131 -31 201 13 31 19 35 50 35 28 0 40 -7 58 -30 33 -46 50
-39 46 18 l-3 47 -75 2 c-56 2 -82 -1 -101 -14z"/>
<path d="M8804 619 c-4 -7 1 -16 10 -21 13 -8 16 -28 16 -128 0 -100 -3 -120
-16 -128 -27 -15 -6 -32 41 -32 48 0 66 15 41 33 -14 10 -16 27 -14 92 l3 80
64 -95 c69 -101 76 -110 104 -110 15 0 17 13 17 135 0 122 2 136 19 147 32 20
13 38 -39 38 -53 0 -72 -14 -46 -33 14 -10 16 -27 14 -87 l-3 -75 -54 88 c-30
48 -62 92 -72 98 -24 13 -76 11 -85 -2z"/>
<path d="M9215 605 c-50 -49 -26 -119 58 -168 56 -33 70 -51 62 -77 -14 -43
-93 -14 -111 42 -3 10 -14 18 -25 18 -20 0 -24 -29 -10 -80 6 -22 12 -24 84
-28 75 -3 78 -2 107 27 56 56 37 108 -61 165 -46 28 -54 37 -54 62 0 26 3 29
34 29 28 0 38 -6 51 -29 30 -56 58 -39 46 28 l-6 34 -76 1 c-67 1 -77 -1 -99
-24z"/>
</g>
</svg>
