<?xml version="1.0" standalone="no"?>
<!DOCTYPE svg PUBLIC "-//W3C//DTD SVG 20010904//EN"
 "http://www.w3.org/TR/2001/REC-SVG-20010904/DTD/svg10.dtd">
<svg version="1.0" xmlns="http://www.w3.org/2000/svg"
 width="1080.000000pt" height="1080.000000pt" viewBox="0 0 1080.000000 1080.000000"
 preserveAspectRatio="xMidYMid meet">

<g transform="translate(0.000000,1080.000000) scale(0.100000,-0.100000)"
fill="#000000" stroke="none">
<path d="M5270 7276 l0 -1036 110 0 110 0 0 935 0 935 385 0 385 0 0 -1110 0
-1110 -1640 0 -1640 0 0 1205 0 1205 -110 0 -110 0 0 -2565 0 -2565 110 0 110
0 0 1259 0 1259 1640 1 1640 2 0 -1161 0 -1161 -382 4 -383 4 0 1092 0 1091
-112 0 -113 0 0 -1190 0 -1190 158 -1 c1149 -9 1323 -6 1622 27 575 63 1068
247 1415 527 77 62 250 234 314 312 172 208 312 476 400 760 134 435 166 1013
86 1540 -38 248 -87 424 -177 630 -311 719 -1002 1162 -2013 1290 -258 33
-373 37 -1077 42 l-728 5 0 -1036z m1690 809 c469 -52 818 -150 1115 -316 615
-342 932 -898 995 -1744 50 -676 -84 -1311 -367 -1735 -331 -496 -861 -783
-1638 -885 -122 -16 -562 -38 -577 -29 -4 3 -8 1070 -7 2371 l1 2366 171 -7
c95 -4 233 -13 307 -21z"/>
<path d="M6574 7977 c-3 -8 -4 -52 -2 -98 l3 -84 110 0 110 0 0 95 0 95 -108
3 c-84 2 -109 0 -113 -11z"/>
<path d="M5590 5465 l0 -95 110 0 110 0 0 95 0 95 -110 0 -110 0 0 -95z"/>
<path d="M6570 2955 l0 -95 115 0 115 0 0 95 0 95 -115 0 -115 0 0 -95z"/>
<path d="M2850 2100 l0 -180 40 0 40 0 0 70 0 70 75 0 75 0 0 -70 0 -70 40 0
40 0 0 180 0 180 -40 0 -40 0 0 -70 0 -70 -75 0 -75 0 0 70 0 70 -40 0 -40 0
0 -180z"/>
<path d="M3424 2182 c-23 -53 -58 -134 -77 -179 l-36 -83 42 0 c40 0 44 2 56
35 l12 35 78 0 77 0 13 -35 c11 -32 16 -35 52 -35 21 0 39 3 39 7 0 4 -32 85
-72 180 l-72 173 -36 0 c-35 0 -35 -1 -76 -98z m99 -61 c9 -27 17 -51 17 -55
0 -3 -18 -6 -40 -6 -22 0 -40 3 -40 8 0 14 34 102 40 102 3 0 13 -22 23 -49z"/>
<path d="M3830 2100 l0 -180 40 0 39 0 3 111 3 112 79 -112 c77 -108 80 -111
118 -111 l38 0 0 180 0 180 -40 0 -39 0 -3 -111 -3 -112 -79 112 c-77 108 -80
111 -118 111 l-38 0 0 -180z"/>
<path d="M4340 2100 l0 -180 40 0 39 0 3 106 3 106 74 -106 c73 -103 76 -106
113 -106 l38 0 0 180 0 180 -40 0 -39 0 -3 -109 -3 -109 -78 109 c-73 103 -80
109 -112 109 l-35 0 0 -180z"/>
<path d="M4931 2238 c-96 -220 -131 -303 -131 -310 0 -4 18 -8 39 -8 36 0 41
3 52 35 l13 35 77 0 77 0 12 -35 c11 -33 14 -35 55 -35 l44 0 -45 108 c-25 59
-59 140 -76 180 -29 70 -31 72 -64 72 -31 0 -37 -4 -53 -42z m88 -160 c1 -14
-7 -18 -39 -18 -22 0 -40 4 -40 9 0 5 10 31 21 58 l21 48 18 -40 c10 -22 19
-48 19 -57z"/>
<path d="M5315 2203 c8 -100 10 -103 40 -103 21 0 25 5 25 29 0 15 3 56 6 90
l7 61 -42 0 -42 0 6 -77z"/>
<path d="M5628 2264 c-49 -26 -70 -87 -47 -137 13 -28 32 -40 109 -65 46 -16
55 -23 55 -42 0 -48 -100 -47 -112 1 -4 15 -11 19 -27 15 -11 -3 -29 -6 -40
-6 -15 0 -17 -5 -11 -27 11 -47 47 -75 104 -81 111 -10 171 26 171 104 0 56
-19 75 -103 103 -73 25 -86 42 -56 72 23 23 54 19 79 -10 11 -13 25 -17 48
-13 18 2 32 8 32 13 0 23 -27 62 -51 75 -36 18 -116 17 -151 -2z"/>
<path d="M6250 2101 l0 -181 89 0 c170 0 240 54 241 186 0 120 -60 166 -227
172 l-103 4 0 -181z m210 87 c40 -25 52 -96 25 -148 -16 -30 -62 -50 -117 -50
l-28 0 0 111 0 112 51 -7 c28 -4 59 -12 69 -18z"/>
<path d="M6760 2100 l0 -180 125 0 125 0 0 35 0 35 -86 0 -85 0 3 38 3 37 78
3 78 3 -3 32 -3 32 -77 3 -78 3 0 34 0 35 85 0 85 0 0 35 0 35 -125 0 -125 0
0 -180z"/>
<path d="M7228 2264 c-49 -26 -70 -87 -47 -137 13 -28 32 -40 109 -65 46 -16
55 -23 55 -42 0 -48 -100 -47 -112 1 -4 15 -11 19 -27 15 -11 -3 -29 -6 -40
-6 -15 0 -17 -5 -11 -27 11 -47 47 -75 104 -81 111 -10 171 26 171 104 0 56
-19 75 -103 103 -73 25 -86 42 -56 72 23 23 54 19 79 -10 11 -13 25 -17 48
-13 18 2 32 8 32 13 0 23 -27 62 -51 75 -36 18 -116 17 -151 -2z"/>
<path d="M7600 2100 l0 -180 45 0 45 0 0 180 0 180 -45 0 -45 0 0 -180z"/>
<path d="M7955 2257 c-123 -70 -126 -260 -4 -322 38 -20 138 -19 167 1 20 14
22 14 22 0 0 -12 10 -16 35 -16 l36 0 -3 98 -3 97 -72 3 -73 3 0 -36 c0 -33 2
-35 35 -35 42 0 44 -11 9 -39 -63 -50 -154 -4 -154 78 0 53 15 84 52 106 35
20 101 16 126 -9 14 -14 18 -13 44 2 36 21 33 40 -11 69 -48 32 -149 32 -206
0z"/>
<path d="M8390 2100 l0 -180 40 0 39 0 3 108 3 107 75 -107 c72 -104 76 -107
113 -108 l37 0 0 180 0 180 -40 0 -39 0 -3 -107 -3 -108 -75 107 c-72 104 -76
107 -112 108 l-38 0 0 -180z"/>
</g>
</svg>
